<?xml version="1.0" encoding="UTF-8" standalone="no"?>
<!DOCTYPE svg PUBLIC "-//W3C//DTD SVG 1.1//EN"
 "http://www.w3.org/Graphics/SVG/1.1/DTD/svg11.dtd">
<!-- Generated by graphviz version 12.2.1 (20241206.2353)
 -->
<!-- Pages: 1 -->
<svg width="1975pt" height="584pt"
 viewBox="0.00 0.00 1975.00 583.84" xmlns="http://www.w3.org/2000/svg" xmlns:xlink="http://www.w3.org/1999/xlink">
<g id="graph0" class="graph" transform="scale(1 1) rotate(0) translate(36 547.84)">
<polygon fill="white" stroke="none" points="-36,36 -36,-547.84 1939,-547.84 1939,36 -36,36"/>
<g id="clust1" class="cluster">
<title>cluster_network</title>
<polygon fill="white" stroke="blue" stroke-dasharray="5,2" points="8,-8 8,-366.25 590,-366.25 590,-8 8,-8"/>
<text text-anchor="middle" x="299" y="-348.95" font-family="Times,serif" font-size="14.00">raft&#45;network</text>
</g>
<g id="clust2" class="cluster">
<title>cluster_volumes</title>
<polygon fill="white" stroke="orange" stroke-dasharray="5,2" points="587,-409.02 587,-503.84 1895,-503.84 1895,-409.02 587,-409.02"/>
<text text-anchor="middle" x="1241" y="-486.54" font-family="Times,serif" font-size="14.00">Persistent Volumes</text>
</g>
<!-- postgres&#45;node1 -->
<g id="node1" class="node">
<title>postgres&#45;node1</title>
<path fill="#336791" stroke="black" d="M140,-333.75C140,-333.75 28,-333.75 28,-333.75 22,-333.75 16,-327.75 16,-321.75 16,-321.75 16,-290.5 16,-290.5 16,-284.5 22,-278.5 28,-278.5 28,-278.5 140,-278.5 140,-278.5 146,-278.5 152,-284.5 152,-290.5 152,-290.5 152,-321.75 152,-321.75 152,-327.75 146,-333.75 140,-333.75"/>
<text text-anchor="middle" x="84" y="-316.45" font-family="Arial" font-size="14.00" fill="white">PostgreSQL</text>
<text text-anchor="middle" x="84" y="-300.7" font-family="Arial" font-size="14.00" fill="white">Node node1</text>
<text text-anchor="middle" x="84" y="-284.95" font-family="Arial" font-size="14.00" fill="white">(postgres:15&#45;alpine)</text>
</g>
<!-- postgres&#45;node2 -->
<g id="node2" class="node">
<title>postgres&#45;node2</title>
<path fill="#336791" stroke="black" d="M294,-333.75C294,-333.75 182,-333.75 182,-333.75 176,-333.75 170,-327.75 170,-321.75 170,-321.75 170,-290.5 170,-290.5 170,-284.5 176,-278.5 182,-278.5 182,-278.5 294,-278.5 294,-278.5 300,-278.5 306,-284.5 306,-290.5 306,-290.5 306,-321.75 306,-321.75 306,-327.75 300,-333.75 294,-333.75"/>
<text text-anchor="middle" x="238" y="-316.45" font-family="Arial" font-size="14.00" fill="white">PostgreSQL</text>
<text text-anchor="middle" x="238" y="-300.7" font-family="Arial" font-size="14.00" fill="white">Node node2</text>
<text text-anchor="middle" x="238" y="-284.95" font-family="Arial" font-size="14.00" fill="white">(postgres:15&#45;alpine)</text>
</g>
<!-- postgres&#45;node3 -->
<g id="node3" class="node">
<title>postgres&#45;node3</title>
<path fill="#336791" stroke="black" d="M448,-333.75C448,-333.75 336,-333.75 336,-333.75 330,-333.75 324,-327.75 324,-321.75 324,-321.75 324,-290.5 324,-290.5 324,-284.5 330,-278.5 336,-278.5 336,-278.5 448,-278.5 448,-278.5 454,-278.5 460,-284.5 460,-290.5 460,-290.5 460,-321.75 460,-321.75 460,-327.75 454,-333.75 448,-333.75"/>
<text text-anchor="middle" x="392" y="-316.45" font-family="Arial" font-size="14.00" fill="white">PostgreSQL</text>
<text text-anchor="middle" x="392" y="-300.7" font-family="Arial" font-size="14.00" fill="white">Node node3</text>
<text text-anchor="middle" x="392" y="-284.95" font-family="Arial" font-size="14.00" fill="white">(postgres:15&#45;alpine)</text>
</g>
<!-- raft&#45;node1 -->
<g id="node4" class="node">
<title>raft&#45;node1</title>
<path fill="#2e86ab" stroke="black" d="M397,-230.5C397,-230.5 303,-230.5 303,-230.5 297,-230.5 291,-224.5 291,-218.5 291,-218.5 291,-203 291,-203 291,-197 297,-191 303,-191 303,-191 397,-191 397,-191 403,-191 409,-197 409,-203 409,-203 409,-218.5 409,-218.5 409,-224.5 403,-230.5 397,-230.5"/>
<text text-anchor="middle" x="350" y="-213.2" font-family="Arial" font-size="14.00" fill="white">Raft Node node1</text>
<text text-anchor="middle" x="350" y="-197.45" font-family="Arial" font-size="14.00" fill="white">Port: 8001</text>
</g>
<!-- raft&#45;node2 -->
<g id="node5" class="node">
<title>raft&#45;node2</title>
<path fill="#2e86ab" stroke="black" d="M492,-143C492,-143 398,-143 398,-143 392,-143 386,-137 386,-131 386,-131 386,-115.5 386,-115.5 386,-109.5 392,-103.5 398,-103.5 398,-103.5 492,-103.5 492,-103.5 498,-103.5 504,-109.5 504,-115.5 504,-115.5 504,-131 504,-131 504,-137 498,-143 492,-143"/>
<text text-anchor="middle" x="445" y="-125.7" font-family="Arial" font-size="14.00" fill="white">Raft Node node2</text>
<text text-anchor="middle" x="445" y="-109.95" font-family="Arial" font-size="14.00" fill="white">Port: 8002</text>
</g>
<!-- raft&#45;node1&#45;&gt;raft&#45;node2 -->
<g id="edge5" class="edge">
<title>raft&#45;node1&#45;&gt;raft&#45;node2</title>
<path fill="none" stroke="purple" stroke-dasharray="1,5" d="M365.75,-181.21C370.48,-174.1 376.07,-166.85 382.25,-161 386.6,-156.88 391.5,-153.02 396.6,-149.47"/>
<polygon fill="purple" stroke="purple" points="362.98,-179.03 360.67,-189.37 368.92,-182.73 362.98,-179.03"/>
<polygon fill="purple" stroke="purple" points="398.15,-152.63 404.62,-144.25 394.33,-146.77 398.15,-152.63"/>
<text text-anchor="middle" x="411.12" y="-163.5" font-family="Arial" font-size="10.00">Raft Protocol</text>
</g>
<!-- raft&#45;node3 -->
<g id="node6" class="node">
<title>raft&#45;node3</title>
<path fill="#2e86ab" stroke="black" d="M492,-55.5C492,-55.5 398,-55.5 398,-55.5 392,-55.5 386,-49.5 386,-43.5 386,-43.5 386,-28 386,-28 386,-22 392,-16 398,-16 398,-16 492,-16 492,-16 498,-16 504,-22 504,-28 504,-28 504,-43.5 504,-43.5 504,-49.5 498,-55.5 492,-55.5"/>
<text text-anchor="middle" x="445" y="-38.2" font-family="Arial" font-size="14.00" fill="white">Raft Node node3</text>
<text text-anchor="middle" x="445" y="-22.45" font-family="Arial" font-size="14.00" fill="white">Port: 8003</text>
</g>
<!-- raft&#45;node1&#45;&gt;raft&#45;node3 -->
<g id="edge6" class="edge">
<title>raft&#45;node1&#45;&gt;raft&#45;node3</title>
<path fill="none" stroke="purple" stroke-dasharray="1,5" d="M329.76,-180.92C316.78,-158.57 304.83,-127.48 319.25,-103.5 331.84,-82.56 353.46,-67.84 375.25,-57.66"/>
<polygon fill="purple" stroke="purple" points="326.67,-182.57 334.91,-189.23 332.62,-178.89 326.67,-182.57"/>
<polygon fill="purple" stroke="purple" points="376.43,-60.96 384.19,-53.76 373.63,-54.55 376.43,-60.96"/>
<text text-anchor="middle" x="348.12" y="-119.75" font-family="Arial" font-size="10.00">Raft Protocol</text>
</g>
<!-- raft&#45;node2&#45;&gt;raft&#45;node3 -->
<g id="edge7" class="edge">
<title>raft&#45;node2&#45;&gt;raft&#45;node3</title>
<path fill="none" stroke="purple" stroke-dasharray="1,5" d="M445,-91.93C445,-83.98 445,-75.4 445,-67.43"/>
<polygon fill="purple" stroke="purple" points="441.5,-91.76 445,-101.76 448.5,-91.76 441.5,-91.76"/>
<polygon fill="purple" stroke="purple" points="448.5,-67.48 445,-57.48 441.5,-67.48 448.5,-67.48"/>
<text text-anchor="middle" x="473.88" y="-76" font-family="Arial" font-size="10.00">Raft Protocol</text>
</g>
<!-- nginx -->
<g id="node7" class="node">
<title>nginx</title>
<path fill="#009900" stroke="black" d="M569.5,-333.75C569.5,-333.75 490.5,-333.75 490.5,-333.75 484.5,-333.75 478.5,-327.75 478.5,-321.75 478.5,-321.75 478.5,-290.5 478.5,-290.5 478.5,-284.5 484.5,-278.5 490.5,-278.5 490.5,-278.5 569.5,-278.5 569.5,-278.5 575.5,-278.5 581.5,-284.5 581.5,-290.5 581.5,-290.5 581.5,-321.75 581.5,-321.75 581.5,-327.75 575.5,-333.75 569.5,-333.75"/>
<text text-anchor="middle" x="530" y="-316.45" font-family="Arial" font-size="14.00" fill="white">Nginx</text>
<text text-anchor="middle" x="530" y="-300.7" font-family="Arial" font-size="14.00" fill="white">Load Balancer</text>
<text text-anchor="middle" x="530" y="-284.95" font-family="Arial" font-size="14.00" fill="white">Port: 9000</text>
</g>
<!-- nginx&#45;&gt;raft&#45;node1 -->
<g id="edge1" class="edge">
<title>nginx&#45;&gt;raft&#45;node1</title>
<path fill="none" stroke="green" d="M478.03,-281.58C475,-280.48 471.97,-279.44 469,-278.5 430.83,-266.43 413.68,-283.26 380.75,-260.5 373.51,-255.49 367.61,-248.17 362.99,-240.71"/>
<polygon fill="green" stroke="green" points="366.08,-239.07 358.2,-231.99 359.94,-242.44 366.08,-239.07"/>
<text text-anchor="middle" x="410.38" y="-251" font-family="Arial" font-size="10.00">Load Balance</text>
</g>
<!-- nginx&#45;&gt;raft&#45;node2 -->
<g id="edge2" class="edge">
<title>nginx&#45;&gt;raft&#45;node2</title>
<path fill="none" stroke="green" d="M495.94,-278.04C482.11,-265.15 467.39,-248.6 458.75,-230.5 447.39,-206.71 444.39,-176.69 443.98,-154.63"/>
<polygon fill="green" stroke="green" points="447.48,-154.8 443.98,-144.8 440.48,-154.8 447.48,-154.8"/>
<text text-anchor="middle" x="488.38" y="-207.25" font-family="Arial" font-size="10.00">Load Balance</text>
</g>
<!-- nginx&#45;&gt;raft&#45;node3 -->
<g id="edge3" class="edge">
<title>nginx&#45;&gt;raft&#45;node3</title>
<path fill="none" stroke="green" d="M535.23,-278.27C542.7,-231.86 551.05,-135.65 507,-73.5 504.23,-69.6 500.91,-66.04 497.25,-62.81"/>
<polygon fill="green" stroke="green" points="499.5,-60.12 489.44,-56.79 495.23,-65.66 499.5,-60.12"/>
<text text-anchor="middle" x="569.33" y="-163.5" font-family="Arial" font-size="10.00">Load Balance</text>
</g>
<!-- external -->
<g id="node8" class="node">
<title>external</title>
<ellipse fill="#ffb6c1" stroke="black" cx="530" cy="-444.18" rx="46.32" ry="27.93"/>
<text text-anchor="middle" x="530" y="-446.63" font-family="Arial" font-size="14.00">External</text>
<text text-anchor="middle" x="530" y="-430.88" font-family="Arial" font-size="14.00">Clients</text>
</g>
<!-- external&#45;&gt;nginx -->
<g id="edge4" class="edge">
<title>external&#45;&gt;nginx</title>
<path fill="none" stroke="blue" d="M530,-415.97C530,-395.64 530,-367.57 530,-345.03"/>
<polygon fill="blue" stroke="blue" points="533.5,-345.33 530,-335.33 526.5,-345.33 533.5,-345.33"/>
<text text-anchor="middle" x="565.62" y="-388.75" font-family="Arial" font-size="10.00">HTTP Requests</text>
<text text-anchor="middle" x="565.62" y="-376.75" font-family="Arial" font-size="10.00">(Port 9000)</text>
</g>
<!-- vol_postgres_node1_data -->
<g id="node9" class="node">
<title>vol_postgres_node1_data</title>
<path fill="#ffe4b5" stroke="black" d="M741.25,-466.4C741.25,-469.12 708.42,-471.34 668,-471.34 627.58,-471.34 594.75,-469.12 594.75,-466.4 594.75,-466.4 594.75,-421.96 594.75,-421.96 594.75,-419.24 627.58,-417.02 668,-417.02 708.42,-417.02 741.25,-419.24 741.25,-421.96 741.25,-421.96 741.25,-466.4 741.25,-466.4"/>
<path fill="none" stroke="black" d="M741.25,-466.4C741.25,-463.68 708.42,-461.46 668,-461.46 627.58,-461.46 594.75,-463.68 594.75,-466.4"/>
<text text-anchor="middle" x="668" y="-446.63" font-family="Arial" font-size="14.00">postgres_node1_data</text>
<text text-anchor="middle" x="668" y="-430.88" font-family="Arial" font-size="14.00">(PostgreSQL Data)</text>
</g>
<!-- vol_postgres_node2_data -->
<g id="node10" class="node">
<title>vol_postgres_node2_data</title>
<path fill="#ffe4b5" stroke="black" d="M906.25,-466.4C906.25,-469.12 873.42,-471.34 833,-471.34 792.58,-471.34 759.75,-469.12 759.75,-466.4 759.75,-466.4 759.75,-421.96 759.75,-421.96 759.75,-419.24 792.58,-417.02 833,-417.02 873.42,-417.02 906.25,-419.24 906.25,-421.96 906.25,-421.96 906.25,-466.4 906.25,-466.4"/>
<path fill="none" stroke="black" d="M906.25,-466.4C906.25,-463.68 873.42,-461.46 833,-461.46 792.58,-461.46 759.75,-463.68 759.75,-466.4"/>
<text text-anchor="middle" x="833" y="-446.63" font-family="Arial" font-size="14.00">postgres_node2_data</text>
<text text-anchor="middle" x="833" y="-430.88" font-family="Arial" font-size="14.00">(PostgreSQL Data)</text>
</g>
<!-- vol_postgres_node3_data -->
<g id="node11" class="node">
<title>vol_postgres_node3_data</title>
<path fill="#ffe4b5" stroke="black" d="M1071.25,-466.4C1071.25,-469.12 1038.42,-471.34 998,-471.34 957.58,-471.34 924.75,-469.12 924.75,-466.4 924.75,-466.4 924.75,-421.96 924.75,-421.96 924.75,-419.24 957.58,-417.02 998,-417.02 1038.42,-417.02 1071.25,-419.24 1071.25,-421.96 1071.25,-421.96 1071.25,-466.4 1071.25,-466.4"/>
<path fill="none" stroke="black" d="M1071.25,-466.4C1071.25,-463.68 1038.42,-461.46 998,-461.46 957.58,-461.46 924.75,-463.68 924.75,-466.4"/>
<text text-anchor="middle" x="998" y="-446.63" font-family="Arial" font-size="14.00">postgres_node3_data</text>
<text text-anchor="middle" x="998" y="-430.88" font-family="Arial" font-size="14.00">(PostgreSQL Data)</text>
</g>
<!-- vol_raft_node1_state -->
<g id="node12" class="node">
<title>vol_raft_node1_state</title>
<path fill="#ffe4b5" stroke="black" d="M1207,-466.4C1207,-469.12 1180.56,-471.34 1148,-471.34 1115.44,-471.34 1089,-469.12 1089,-466.4 1089,-466.4 1089,-421.96 1089,-421.96 1089,-419.24 1115.44,-417.02 1148,-417.02 1180.56,-417.02 1207,-419.24 1207,-421.96 1207,-421.96 1207,-466.4 1207,-466.4"/>
<path fill="none" stroke="black" d="M1207,-466.4C1207,-463.68 1180.56,-461.46 1148,-461.46 1115.44,-461.46 1089,-463.68 1089,-466.4"/>
<text text-anchor="middle" x="1148" y="-446.63" font-family="Arial" font-size="14.00">raft_node1_state</text>
<text text-anchor="middle" x="1148" y="-430.88" font-family="Arial" font-size="14.00">(Raft State/WAL)</text>
</g>
<!-- vol_raft_node1_wal -->
<g id="node13" class="node">
<title>vol_raft_node1_wal</title>
<path fill="#ffe4b5" stroke="black" d="M1343,-466.4C1343,-469.12 1316.56,-471.34 1284,-471.34 1251.44,-471.34 1225,-469.12 1225,-466.4 1225,-466.4 1225,-421.96 1225,-421.96 1225,-419.24 1251.44,-417.02 1284,-417.02 1316.56,-417.02 1343,-419.24 1343,-421.96 1343,-421.96 1343,-466.4 1343,-466.4"/>
<path fill="none" stroke="black" d="M1343,-466.4C1343,-463.68 1316.56,-461.46 1284,-461.46 1251.44,-461.46 1225,-463.68 1225,-466.4"/>
<text text-anchor="middle" x="1284" y="-446.63" font-family="Arial" font-size="14.00">raft_node1_wal</text>
<text text-anchor="middle" x="1284" y="-430.88" font-family="Arial" font-size="14.00">(Raft State/WAL)</text>
</g>
<!-- vol_raft_node2_state -->
<g id="node14" class="node">
<title>vol_raft_node2_state</title>
<path fill="#ffe4b5" stroke="black" d="M1479,-466.4C1479,-469.12 1452.56,-471.34 1420,-471.34 1387.44,-471.34 1361,-469.12 1361,-466.4 1361,-466.4 1361,-421.96 1361,-421.96 1361,-419.24 1387.44,-417.02 1420,-417.02 1452.56,-417.02 1479,-419.24 1479,-421.96 1479,-421.96 1479,-466.4 1479,-466.4"/>
<path fill="none" stroke="black" d="M1479,-466.4C1479,-463.68 1452.56,-461.46 1420,-461.46 1387.44,-461.46 1361,-463.68 1361,-466.4"/>
<text text-anchor="middle" x="1420" y="-446.63" font-family="Arial" font-size="14.00">raft_node2_state</text>
<text text-anchor="middle" x="1420" y="-430.88" font-family="Arial" font-size="14.00">(Raft State/WAL)</text>
</g>
<!-- vol_raft_node2_wal -->
<g id="node15" class="node">
<title>vol_raft_node2_wal</title>
<path fill="#ffe4b5" stroke="black" d="M1615,-466.4C1615,-469.12 1588.56,-471.34 1556,-471.34 1523.44,-471.34 1497,-469.12 1497,-466.4 1497,-466.4 1497,-421.96 1497,-421.96 1497,-419.24 1523.44,-417.02 1556,-417.02 1588.56,-417.02 1615,-419.24 1615,-421.96 1615,-421.96 1615,-466.4 1615,-466.4"/>
<path fill="none" stroke="black" d="M1615,-466.4C1615,-463.68 1588.56,-461.46 1556,-461.46 1523.44,-461.46 1497,-463.68 1497,-466.4"/>
<text text-anchor="middle" x="1556" y="-446.63" font-family="Arial" font-size="14.00">raft_node2_wal</text>
<text text-anchor="middle" x="1556" y="-430.88" font-family="Arial" font-size="14.00">(Raft State/WAL)</text>
</g>
<!-- vol_raft_node3_state -->
<g id="node16" class="node">
<title>vol_raft_node3_state</title>
<path fill="#ffe4b5" stroke="black" d="M1751,-466.4C1751,-469.12 1724.56,-471.34 1692,-471.34 1659.44,-471.34 1633,-469.12 1633,-466.4 1633,-466.4 1633,-421.96 1633,-421.96 1633,-419.24 1659.44,-417.02 1692,-417.02 1724.56,-417.02 1751,-419.24 1751,-421.96 1751,-421.96 1751,-466.4 1751,-466.4"/>
<path fill="none" stroke="black" d="M1751,-466.4C1751,-463.68 1724.56,-461.46 1692,-461.46 1659.44,-461.46 1633,-463.68 1633,-466.4"/>
<text text-anchor="middle" x="1692" y="-446.63" font-family="Arial" font-size="14.00">raft_node3_state</text>
<text text-anchor="middle" x="1692" y="-430.88" font-family="Arial" font-size="14.00">(Raft State/WAL)</text>
</g>
<!-- vol_raft_node3_wal -->
<g id="node17" class="node">
<title>vol_raft_node3_wal</title>
<path fill="#ffe4b5" stroke="black" d="M1887,-466.4C1887,-469.12 1860.56,-471.34 1828,-471.34 1795.44,-471.34 1769,-469.12 1769,-466.4 1769,-466.4 1769,-421.96 1769,-421.96 1769,-419.24 1795.44,-417.02 1828,-417.02 1860.56,-417.02 1887,-419.24 1887,-421.96 1887,-421.96 1887,-466.4 1887,-466.4"/>
<path fill="none" stroke="black" d="M1887,-466.4C1887,-463.68 1860.56,-461.46 1828,-461.46 1795.44,-461.46 1769,-463.68 1769,-466.4"/>
<text text-anchor="middle" x="1828" y="-446.63" font-family="Arial" font-size="14.00">raft_node3_wal</text>
<text text-anchor="middle" x="1828" y="-430.88" font-family="Arial" font-size="14.00">(Raft State/WAL)</text>
</g>
</g>
</svg>
